<?xml version="1.0" standalone="no"?>
<!DOCTYPE svg PUBLIC "-//W3C//DTD SVG 20010904//EN"
 "http://www.w3.org/TR/2001/REC-SVG-20010904/DTD/svg10.dtd">
<svg version="1.0" xmlns="http://www.w3.org/2000/svg"
 width="700.000000pt" height="700.000000pt" viewBox="0 0 700.000000 700.000000"
 preserveAspectRatio="xMidYMid meet">
<metadata>
Created by potrace 1.11, written by Peter Selinger 2001-2013
</metadata>
<g transform="translate(0.000000,700.000000) scale(0.100000,-0.100000)"
fill="#000000" stroke="none">
<path d="M3298 6995 c-2 -1 -41 -5 -88 -9 -494 -34 -1013 -197 -1465 -459
-103 -60 -289 -180 -305 -197 -3 -3 -41 -32 -84 -65 -206 -155 -444 -393 -620
-619 -333 -428 -577 -966 -672 -1481 -9 -49 -17 -97 -19 -105 -2 -9 -6 -43
-10 -75 -4 -33 -9 -69 -11 -80 -18 -98 -25 -570 -10 -715 8 -80 24 -206 32
-255 3 -16 7 -41 9 -55 11 -72 30 -151 99 -410 44 -164 192 -507 293 -678 24
-41 43 -76 43 -79 0 -3 42 -69 94 -146 431 -646 1049 -1124 1781 -1378 61 -21
128 -42 150 -48 22 -5 85 -21 140 -36 115 -30 282 -62 370 -71 33 -3 63 -8 66
-9 15 -10 227 -20 409 -20 188 0 341 8 430 21 144 21 295 48 345 61 33 8 67
16 75 18 113 23 378 114 549 188 120 51 307 146 353 178 14 11 29 19 33 19 13
0 268 174 367 251 177 137 327 281 514 491 40 45 221 284 236 311 6 11 15 26
20 31 64 78 219 370 310 586 108 254 210 631 234 861 3 35 8 67 10 70 9 17 19
214 18 399 0 188 -6 331 -19 420 -3 19 -7 56 -10 81 -3 25 -7 54 -9 65 -2 10
-11 60 -21 109 -123 661 -462 1305 -938 1785 -89 90 -171 167 -242 225 -33 28
-62 53 -65 56 -13 15 -205 152 -295 211 -349 226 -766 398 -1172 483 -99 20
-244 43 -393 60 -54 7 -526 16 -532 10z"/>
</g>
</svg>
